<svg width="33" height="32" viewBox="0 0 33 32" fill="none" xmlns="http://www.w3.org/2000/svg">
<g clip-path="url(#clip0_5348_53102)">
<path fill-rule="evenodd" clip-rule="evenodd" d="M18.7104 0.696519C18.0705 0.231427 17.2987 -0.0126626 16.51 0.000638191C15.722 -0.0113317 14.9511 0.23366 14.3123 0.699145C13.9477 0.932425 13.5653 1.2611 13.1537 1.615C12.5922 2.09768 11.9762 2.62728 11.276 3.02575C10.6307 3.39808 9.77381 3.42999 8.87274 3.46355C7.42882 3.51733 5.87134 3.57533 4.88846 5.04511C3.98398 6.40178 3.91761 7.4701 3.85233 8.52094C3.85051 8.55015 3.8487 8.57935 3.84687 8.60855C3.77135 9.77185 3.56824 10.8432 2.38863 12.4188C0.433042 15.0264 0.0242161 16.7622 1.03196 18.5715C1.40108 19.2229 1.98 19.72 2.49284 20.1604C2.9496 20.5526 3.35394 20.8998 3.51095 21.271C3.83878 22.0347 3.84941 22.712 3.86035 23.4087C3.87321 24.2284 3.8865 25.075 4.41714 26.1211C4.72218 26.7571 5.15344 27.3233 5.68421 27.7845C6.21498 28.2456 6.83397 28.592 7.50286 28.8022C8.0899 28.9943 8.67824 28.9517 9.23745 28.9113C9.79448 28.871 10.3226 28.8328 10.7917 29.0307C11.6138 29.3798 12.3314 29.9582 13.0054 30.5015C13.6848 31.0492 14.3201 31.5613 14.9737 31.7669C15.9604 32.0786 17.018 32.0786 18.0047 31.7669C18.6692 31.5604 19.3071 31.0446 19.988 30.4941C20.6574 29.953 21.3683 29.3782 22.1867 29.0307C22.6585 28.8328 23.1868 28.871 23.7433 28.9113C24.3017 28.9517 24.8886 28.9942 25.4756 28.8022C26.1516 28.5968 26.7782 28.2525 27.3159 27.7911C27.8537 27.3297 28.291 26.7611 28.6004 26.1211C29.1275 25.0764 29.1401 24.2306 29.1524 23.412C29.1628 22.7141 29.173 22.0359 29.5013 21.271C29.6572 20.9049 30.057 20.5601 30.5085 20.1707C31.0222 19.7277 31.6028 19.2269 31.9673 18.5715C32.975 16.7622 32.5688 15.0264 30.6132 12.4188C29.4336 10.8432 29.2305 9.77185 29.155 8.60855C29.1527 8.5733 29.1504 8.53803 29.1482 8.50275C29.081 7.45776 29.0127 6.39396 28.1134 5.04511C27.1357 3.57581 25.5856 3.51736 24.1436 3.46299C23.2429 3.42903 22.3844 3.39666 21.7336 3.02312C21.0443 2.62652 20.4331 2.10003 19.8748 1.61918C19.461 1.26269 19.0763 0.931294 18.7104 0.696519ZM22.8492 6.49768C20.9698 5.24189 18.7602 4.57161 16.4999 4.57161C13.4688 4.57161 10.5619 5.77569 8.41864 7.91897C6.27537 10.0622 5.07129 12.9691 5.07129 16.0002C5.07129 18.2605 5.74156 20.4701 6.99735 22.3496C8.25314 24.229 10.038 25.6938 12.1263 26.5588C14.2146 27.4238 16.5125 27.6501 18.7295 27.2092C20.9464 26.7682 22.9828 25.6797 24.5811 24.0814C26.1794 22.4831 27.2679 20.4467 27.7088 18.2298C28.1498 16.0129 27.9235 13.715 27.0585 11.6267C26.1935 9.53836 24.7287 7.75346 22.8492 6.49768Z" fill="#FE006C"/>
<path d="M11.3342 18.2988L13.7586 20.7231C14.2049 21.1694 14.9242 21.1651 15.3651 20.7135L22.0183 13.899" stroke="#FE006C" stroke-width="2.66667" stroke-linecap="round"/>
</g>
<defs>
<clipPath id="clip0_5348_53102">
<rect width="32" height="32" fill="white" transform="translate(0.5)"/>
</clipPath>
</defs>
</svg>
