<svg width="24" height="24" viewBox="0 0 24 24" fill="none" xmlns="http://www.w3.org/2000/svg">
<path d="M12.1745 15.9904L11.1908 15.8106L12.1745 15.9904ZM13.338 17.154L13.1582 16.1703L13.338 17.154ZM12.0603 13.0255L18.2782 6.80761L19.6924 8.22183L13.4745 14.4397L12.0603 13.0255ZM21.1066 6.80761L22.5208 8.22183L21.1066 9.63604L19.6924 8.22183L21.1066 6.80761ZM22.5208 11.0503L16.3029 17.2681L14.8887 15.8539L21.1066 9.63604L22.5208 11.0503ZM11.1908 15.8106L11.5071 14.0801L13.4745 14.4397L13.1582 16.1703L11.1908 15.8106ZM15.2484 17.8213L13.5178 18.1377L13.1582 16.1703L14.8887 15.8539L15.2484 17.8213ZM13.1582 16.1703L13.1582 16.1703L13.5178 18.1377C12.1418 18.3892 10.9392 17.1866 11.1908 15.8106L13.1582 16.1703ZM16.3029 17.2681C16.0157 17.5553 15.6479 17.7483 15.2484 17.8213L14.8887 15.8539L16.3029 17.2681ZM22.5208 8.22183C23.3019 9.00287 23.3019 10.2692 22.5208 11.0503L21.1066 9.63604L22.5208 8.22183ZM18.2782 6.80761C19.0592 6.02656 20.3256 6.02656 21.1066 6.80761L19.6924 8.22183L19.6924 8.22183L18.2782 6.80761ZM13.4745 14.4397L13.4745 14.4397L11.5071 14.0801C11.5801 13.6805 11.7731 13.3127 12.0603 13.0255L13.4745 14.4397Z" fill="black"/>
<path d="M4.91667 6C5.46895 6 5.91667 5.55228 5.91667 5C5.91667 4.44772 5.46895 4 4.91667 4V6ZM13.0833 4C12.531 4 12.0833 4.44772 12.0833 5C12.0833 5.55228 12.531 6 13.0833 6V4ZM15 6.5C15 7.05228 15.4477 7.5 16 7.5C16.5523 7.5 17 7.05228 17 6.5H15ZM17 19.5C17 18.9477 16.5523 18.5 16 18.5C15.4477 18.5 15 18.9477 15 19.5H17ZM1 6V20H3V6H1ZM3 22H15V20H3V22ZM4.91667 4H3V6H4.91667V4ZM15 4H13.0833V6H15V4ZM17 6.5V6H15V6.5H17ZM17 20V19.5H15V20H17ZM15 6H17C17 4.89543 16.1046 4 15 4V6ZM15 22C16.1046 22 17 21.1046 17 20H15V22ZM1 20C1 21.1046 1.89543 22 3 22V20H1ZM3 6H3V4C1.89543 4 1 4.89543 1 6H3Z" fill="black"/>
<path d="M6 5.5V3.5C6 3.22386 6.22386 3 6.5 3H11.5C11.7761 3 12 3.22386 12 3.5V5.5C12 5.77614 11.7761 6 11.5 6H6.5C6.22386 6 6 5.77614 6 5.5Z" stroke="black" stroke-width="2"/>
<path d="M5.5 10H11.5" stroke="black" stroke-width="2" stroke-linecap="round"/>
<path d="M5.5 13.5H8.5" stroke="black" stroke-width="2" stroke-linecap="round"/>
<path d="M5.5 17H8.5" stroke="black" stroke-width="2" stroke-linecap="round"/>
</svg>
